<svg xmlns="http://www.w3.org/2000/svg" xmlns:xlink="http://www.w3.org/1999/xlink" version="1.1" x="0px" y="0px" viewBox="0 0 100 125" style="enable-background:new 0 0 100 100;" xml:space="preserve"><g><path d="M52.8085289,73.9946289H42.232357c-0.5527344,0-1,0.4477539-1,1v3.8457031c0,0.5522461,0.4472656,1,1,1h10.5761719   c0.5527344,0,1-0.4477539,1-1v-3.8457031C53.8085289,74.4423828,53.3612633,73.9946289,52.8085289,73.9946289z    M51.8085289,77.840332H43.232357v-1.8457031h8.5761719V77.840332z"/><path d="M89.499939,51.3500977c0.5527344,0,1-0.4477539,1-1V38.2299805c0-0.5522461-0.4472656-1-1-1H77.5800171V24.5   c0-0.5522461-0.4472656-1-1-1H52.5701866c-0.1993408-1.0611572-0.5113525-2.1014404-0.9384155-3.0981445   c-1.9150391-4.5424805-5.9833984-7.7822266-10.8837891-8.6660156c-0.0195313-0.0039063-0.0419922-0.0068359-0.0644531-0.0092773   c-0.1220703-0.0229492-0.2441406-0.0405273-0.3671875-0.0581055l-0.2011719-0.0302734   c-0.0849609-0.0161133-0.1796875-0.0302734-0.2695313-0.0356445l-0.1416016-0.015625   c-0.1669922-0.019043-0.3408203-0.0380859-0.4785156-0.0429688C38.8466148,11.5107422,38.4784508,11.5,38.1102867,11.5h-5.2207031   c-0.3583984,0-0.7392578,0.0112305-1.0634747,0.0410156c-0.1816406,0.0078125-0.3632813,0.0273438-0.5361328,0.046875   l-0.1318359,0.0141602c-0.0888672,0.0048828-0.1757813,0.0185547-0.2773438,0.0390625l-0.1708984,0.0244141   c-0.1279297,0.0170898-0.2519531,0.0351563-0.375,0.0576172c-0.03125,0.0029297-0.0625,0.0068359-0.0927734,0.0126953   c-4.8837891,0.8828125-8.9482422,4.1220703-10.8701172,8.6577148c-0.8046875,1.8623047-1.2119141,3.8666992-1.2119141,5.956543   c0,0.2255859,0,0.4331055-0.0097656,0.699707c0,0.3833008-0.0107422,0.7470703-0.0302734,1.1401367   c-0.0488281,1.6533203-0.1572266,3.2089844-0.3212891,4.6098633l-0.0869141,0.7207031   c-0.0029297,0.050293-0.0107422,0.1040039-0.0185547,0.1577148c-0.0126953,0.0961914-0.0244141,0.1923828-0.0244141,0.2202148   c-0.0693359,0.5205078-0.1376953,1.0410156-0.2158203,1.5224609c-0.0029297,0.0175781-0.015625,0.0810547-0.0166016,0.0986328   c-0.0166016,0.0751953-0.03125,0.1484375-0.0302734,0.1616211l-0.1210938,0.6650391   c-0.2011719,1.137207-0.453125,2.2783203-0.7763672,3.5083008c-0.0429688,0.175293-0.0966797,0.3452148-0.1523438,0.5224609   l-0.0693359,0.230957c-0.0546875,0.2290039-0.1191406,0.4389648-0.1914063,0.6757813   c-0.1220703,0.4414063-0.2626953,0.8632813-0.4238281,1.2988281c-0.0361328,0.1069336-0.0751953,0.2114258-0.1132813,0.3144531   l-0.0976563,0.2714844c-0.4873047,1.3398438-1.0556641,2.6000977-1.734375,3.84375   c-0.1298828,0.2329102-0.2705078,0.456543-0.4150391,0.6845703c-0.65625,1.0986328-1.1279297,1.6264648-1.1298828,1.6289063   c-0.2675781,0.2924805-0.3369141,0.715332-0.1767578,1.0776367C12.1649761,50.7661133,12.5233746,51,12.9198589,51h16.6201172   v3.7453003l-1.6005859,2.3875122c-0.0664063,0.098999-0.1063232,0.208252-0.1337891,0.3201904l-6.9472656,3.0753174   l-2.6113281,1.1767578c-2.7060547,1.1933594-4.9101563,3.3276367-6.2089844,6.0136719l-0.2958984,0.637207   c-0.4853516,1.2055664-0.7910156,2.4541016-0.9082031,3.7172852L9.5038433,87.4042969   c-0.0244141,0.2792969,0.0703125,0.5556641,0.2587891,0.762207c0.1894531,0.2060547,0.4570313,0.3237305,0.7373047,0.3237305   h15.9515991C26.468504,88.4910889,26.4827862,88.5,26.4999371,88.5h63c0.5527344,0,1-0.4477539,1-1v-4.8500977   c0-0.5522461-0.4472656-1-1-1h-1.4199219v-3.8398438c0-0.5522461-0.4472656-1-1-1h-0.6201172V51.3500977H89.499939z    M75.5800171,25.5v11.7299805H53.8855553c-0.0565796-0.2918091-0.1115112-0.59198-0.164917-0.90625l-0.0410156-0.2128906   c-0.0283203-0.1547852-0.0595703-0.3173828-0.0947266-0.4736328c-0.0117188-0.0527344-0.0244141-0.1049805-0.0380859-0.2133789   c-0.0976563-0.6171875-0.1855469-1.2841797-0.2666016-1.9765625c-0.015625-0.1064453-0.0283203-0.215332-0.0410156-0.3271484   l-0.0351563-0.2954102c-0.0976563-0.9199219-0.1787109-1.9384766-0.2558594-3.2084961   c-0.0195313-0.309082-0.0390625-0.6171875-0.0488281-0.9589844c-0.0400391-0.7426758-0.0595703-1.5151367-0.0595703-2.3071289   c0-0.2836914-0.0078125-0.5673828-0.0234375-0.8500977H75.5800171z M14.8593121,49   c0.0507813-0.081543,0.1025391-0.1660156,0.1542969-0.253418c0.1494141-0.2348633,0.3095703-0.4916992,0.4638672-0.7675781   c0.7324219-1.3422852,1.3408203-2.6923828,1.8671875-4.1411133l0.0898438-0.2460938   c0.0449219-0.1225586,0.0908203-0.2470703,0.1230469-0.3427734c0.1699219-0.456543,0.328125-0.934082,0.4580078-1.4067383   c0.0761719-0.2495117,0.1523438-0.4995117,0.2001953-0.7080078l0.0488281-0.1591797   c0.0693359-0.2202148,0.1347656-0.4321289,0.1826172-0.6308594c0.3330078-1.2646484,0.5966797-2.4584961,0.8027344-3.6279297   c0.0283203-0.1411133,0.0566406-0.300293,0.0849609-0.4599609l0.0556641-0.3125   c0.0175781-0.0825195,0.0341797-0.1674805,0.0371094-0.2045898c0.0800781-0.4990234,0.1523438-1.0380859,0.2304688-1.6396484   l0.0175781-0.1567383c0.0136719-0.0966797,0.0253906-0.1933594,0.0244141-0.2163086l0.0830078-0.6801758   c0.1728516-1.472168,0.2861328-3.0864258,0.3359375-4.7763672c0.0205078-0.4067383,0.03125-0.8027344,0.0302734-1.1796875   c0.0107422-0.253418,0.0107422-0.4863281,0.0107422-0.7402344c0-1.815918,0.3525391-3.5532227,1.0507813-5.1699219   c1.6513672-3.8969727,5.1308594-6.6826172,9.3164063-7.4633789c0.0429688-0.003418,0.0849609-0.0092773,0.1269531-0.0180664   c0.1083984-0.0224609,0.2167969-0.0366211,0.3271484-0.0517578l0.2490234-0.046875   c0.0332031,0,0.0664063-0.0014648,0.0996094-0.0048828l0.1816406-0.0195313   c0.1298828-0.0146484,0.2666016-0.0307617,0.4472656-0.0395508C32.2694664,13.5083008,32.5878258,13.5,32.8895836,13.5h5.2207031   c0.3115234,0,0.6230469,0.0087891,0.9853516,0.0390625c0.1318359,0.0058594,0.2597656,0.0209961,0.3828125,0.0351563   l0.2275391,0.0219727l0.1494141-0.9887695l-0.0332031,1.0097656l0.2158203,0.0317383   c0.1025391,0.0146484,0.2050781,0.0283203,0.3076172,0.0498047c0.0292969,0.0058594,0.0634766,0.0107422,0.0976563,0.0146484   c4.2099609,0.7768555,7.7011719,3.5644531,9.3476563,7.4702148c0.4726563,1.1040039,0.7880859,2.2617188,0.9375,3.4467773   c0.0742188,0.5639648,0.1113281,1.1425781,0.1113281,1.7197266c0,0.828125,0.0214844,1.6357422,0.0605469,2.3896484   c0.0107422,0.3413086,0.0302734,0.6728516,0.0517578,1.0009766c0.0791016,1.2978516,0.1621094,2.3447266,0.2666016,3.3198242   l0.0332031,0.2841797c0.015625,0.1328125,0.0302734,0.2617188,0.0449219,0.3618164   c0.0820313,0.6938477,0.1738281,1.387207,0.2685547,1.9804688c0.0146484,0.1411133,0.0410156,0.2685547,0.0693359,0.3935547   c0.0292969,0.1298828,0.0546875,0.2670898,0.0791016,0.3974609l0.0400391,0.2084961   c0.1025391,0.605957,0.2158203,1.1918945,0.3388672,1.753418c0.1435547,0.6679688,0.3076172,1.3056641,0.4736328,1.9169922   l0.0595703,0.2177734c0.0498047,0.1835938,0.0986328,0.3666992,0.1416016,0.4970703   c0.0644531,0.2709961,0.140625,0.5209961,0.2138672,0.7612305c0.1181641,0.3994141,0.2382813,0.7871094,0.3603516,1.0947266   c0.0253906,0.0742188,0.0488281,0.1474609,0.0742188,0.237793l0.0009766-0.0004883   c0.0136719,0.0488281,0.03125,0.0966797,0.0517578,0.1430664c0.0537109,0.1665039,0.1162109,0.3378906,0.1923828,0.546875   c0.2265625,0.6162109,0.4716797,1.2021484,0.6689453,1.6567383c0.0224609,0.0698242,0.0595703,0.1567383,0.1279297,0.309082   c0.3671875,0.8139648,0.7304688,1.543457,1.09375,2.1923828l0.1582031,0.2709961   c0.0927734,0.1606445,0.1826172,0.3154297,0.2617188,0.4389648C56.029232,48.8193359,56.0848961,48.9111328,56.1405602,49   H42.4305992c0.0340576-0.0320435,0.0650635-0.0665894,0.098938-0.0988159   c0.3092041-0.2944946,0.6127319-0.5942993,0.9033813-0.9024048c0.0028076-0.0029907,0.0054321-0.0061646,0.0083008-0.0091553   c0.2874146-0.3049316,0.5606079-0.6161499,0.8255005-0.9296265c0.0795898-0.0941162,0.1549683-0.1881714,0.2321777-0.2828369   c0.1916504-0.2348022,0.3751831-0.4699097,0.5515137-0.7064819c0.0718384-0.0963135,0.1444092-0.1918335,0.213501-0.288269   c0.2300415-0.321106,0.449585-0.6419678,0.6461792-0.9606323c0.7216797-0.8505859,1.1884766-1.9023438,1.3222656-2.9819336   c0.0263672-0.09375,0.0517578-0.2055664,0.0810547-0.355957c0.0253906-0.1450195,0.0507813-0.2973633,0.0820313-0.4467773   c0.0341797-0.1489258,0.0566406-0.3095703,0.0791016-0.4702148L47.4921227,40.4375   c0.0341797-0.1806641,0.0566406-0.3608398,0.0800781-0.5512695l0.0136719-0.1123047   c0.0263672-0.1225586,0.0419922-0.2460938,0.0546875-0.3774414c0.0292969-0.1420898,0.0429688-0.2695313,0.046875-0.355957   c0.0234375-0.1474609,0.0380859-0.3061523,0.046875-0.4326172l0.0175781-0.1630859   c0.0117188-0.0444336,0.0205078-0.0893555,0.0263672-0.1352539c0.0205078-0.1665039,0.0400391-0.3325195,0.0419922-0.4213867   c0.0224609-0.1616211,0.0361328-0.3237305,0.046875-0.4731445l0.0097656-0.105957   c0.0126953-0.1196289,0.0234375-0.2392578,0.0224609-0.3071289c0.0068359-0.097168,0.0136719-0.2001953,0.0292969-0.296875   c0.0039063-0.0288086,0.0107422-0.1044922,0.0126953-0.1333008c0.0068359-0.1069336,0.0146484-0.2250977,0.0351563-0.3833008   c0.0126953-0.1391602,0.0234375-0.2792969,0.0205078-0.3388672l0.0010376-0.0137329l0.0136108-0.1259155   c0.0097656-0.0761719,0.0195313-0.152832,0.0263672-0.2524414l0.0361328-0.4296875   c0.0117188-0.105957,0.0146484-0.2119141,0.015625-0.3183594c0.0261841-0.2332153,0.0356445-0.4328003,0.0401611-0.5809937   c0.0012817-0.0270996,0.0053101-0.0612183,0.0064697-0.0877075c0.0169678-0.1444702,0.0269165-0.2855835,0.0305786-0.3891602   c0.0114746-0.1587524,0.0206909-0.3276367,0.0370483-0.470459c0.0008545-0.0080566,0.0011597-0.0214844,0.001709-0.0323486   c0.0004883-0.0183716,0.0038452-0.0332031,0.0041504-0.052124c0.0041504-0.0414429,0.0044556-0.0944824,0.0062866-0.1408691   c0.0006104-0.0056763,0.0039673-0.0101929,0.0044556-0.0158691c0.0079346-0.0909424,0.0124512-0.1657715,0.0185547-0.2485962   c0.2424316,0.0102539,0.4765625,0.0376587,0.7226563,0.0376587c0.5527344,0,1-0.4477539,1-1s-0.4472656-1-1-1   c-0.510437,0-1.0126343-0.0281372-1.4957275-0.0773926c-0.0177002-0.0029907-0.0321655-0.0133667-0.0501709-0.0153809   c-0.6268921-0.0709229-1.2595215-0.1796265-1.8796997-0.3217163c-0.7780762-0.1917725-1.5031128-0.427063-2.1627808-0.6976929   c-0.0272827-0.0111084-0.0542603-0.0203247-0.0805664-0.0318604c-0.0283203-0.0126953-0.0585938-0.0239258-0.0888672-0.0336914   l-0.0859375-0.0366211c-0.1142578-0.0488281-0.2255859-0.0966797-0.3369141-0.1416016   c-0.078125-0.0419922-0.1503906-0.0693359-0.2060547-0.0874023c-0.0224609-0.012207-0.0449219-0.0234375-0.0673828-0.0341797   l-0.2138672-0.1069336c-0.1015625-0.0644531-0.2119141-0.1201172-0.3164063-0.1699219   c-0.015625-0.0073242-0.109375-0.0517578-0.125-0.0585938c-0.0266724-0.0109863-0.0537109-0.0245361-0.0871582-0.0422974   c-0.0313721-0.0167236-0.0681763-0.0371704-0.1179199-0.0646362c-0.0283203-0.0185547-0.0566406-0.0356445-0.0830078-0.050293   c-0.0058594-0.0029297-0.0957031-0.0522461-0.1005859-0.0551758c-0.1422729-0.0741577-0.2851563-0.161499-0.453125-0.2644043   c-0.00354-0.0025024-0.0082397-0.0050659-0.0117188-0.0075684c-0.0449219-0.0322266-0.0927734-0.0610352-0.1416016-0.0859375   c-0.03125-0.015625-0.0576172-0.0356445-0.0859375-0.0537109c-0.0703125-0.0458984-0.140625-0.0908203-0.171875-0.1064453   c-0.2089844-0.1269531-0.4082031-0.2631836-0.5615234-0.371582c-0.1240234-0.097168-0.2480469-0.1821289-0.3671875-0.2631836   l-0.2089844-0.1538086c-0.0061035-0.0048218-0.0126343-0.0090332-0.0189209-0.0136719   c-0.0014648-0.0010986-0.0020752-0.0028076-0.00354-0.0039063c-0.0253906-0.019043-0.0507813-0.0375977-0.0751953-0.0561523   v-0.0004883c-0.0333862-0.02771-0.0552979-0.0429688-0.0831299-0.064209   c-0.0263062-0.0205688-0.0526733-0.0432129-0.0789795-0.0622559l-0.0006714,0.0003662   c-0.0322266-0.0255127-0.064209-0.0509033-0.0960693-0.0762939c-0.0036621-0.0029297-0.007019-0.0061646-0.0106812-0.0090332   c-0.0332031-0.0336914-0.0693359-0.0649414-0.1074219-0.0932617c-0.0479736-0.0461426-0.1033325-0.0820923-0.1586914-0.1177368   l-0.0092773-0.0072632c-0.0352783-0.0279541-0.0687256-0.0554199-0.1036987-0.0831299   c-0.0144653-0.0157471-0.0206299-0.0219116-0.0525513-0.0430908c-0.0007324-0.0003662-0.0054932-0.005127-0.0058594-0.005127   c0,0,0,0.0004883,0,0.0009766c-0.0400391-0.0405273-0.0839844-0.0771484-0.1308594-0.1098633   c-0.0093384-0.0084229-0.0194702-0.0158691-0.0290527-0.0239868c-0.1723633-0.1465454-0.3369751-0.289856-0.4888306-0.4248657   l-0.0192261-0.0194092c-0.0166016-0.0166016-0.0341797-0.0327148-0.0517578-0.0483398   c-0.0410156-0.0454102-0.0869141-0.0869141-0.1357422-0.1240234l-0.0849609-0.0893555   c-0.0996094-0.1000977-0.1923828-0.1894531-0.2890625-0.2709961l-0.3603516-0.3842773   c-0.0439453-0.0517578-0.09375-0.0986328-0.1474609-0.1396484c0-0.0004883-0.0009766-0.0009766-0.0009766-0.0014648   c0,0.0004883,0.0009766,0.0004883,0.0009766,0.0004883c0.0009766,0-0.0029297-0.0043945-0.0126953-0.0141602l-0.0009766,0.0009766   c-0.0029297-0.0039063-0.0068359-0.0078125-0.0107422-0.0117188c-0.0361328-0.0620117-0.0761719-0.112793-0.1367188-0.1645508   c-0.0136719-0.0151367-0.0273438-0.0302734-0.0419922-0.0444336c-0.0322266-0.0327148-0.0576172-0.0664063-0.0800781-0.0942383   c-0.0107422-0.0131836-0.0585938-0.0717773-0.0703125-0.0844727l-0.1279297-0.1391602   c-0.0947266-0.1352539-0.1494141-0.2016602-0.1494141-0.2016602c-0.1894531-0.2329102-0.4765625-0.3706055-0.7773438-0.3706055   c-0.0009766,0-0.0019531,0-0.0029297,0c-0.3017578,0.0009766-0.5898438,0.1352539-0.7783203,0.3706055l-0.0712891,0.0888672   c-0.0458984,0.0458984-0.0839844,0.090332-0.1142578,0.1289063c-0.0478516,0.0493164-0.0957031,0.1015625-0.1445313,0.1621094   c-0.0214844,0.0263672-0.0410156,0.0537109-0.0595703,0.081543c-0.0449219,0.0454102-0.1103516,0.1147461-0.1767578,0.2075195   c-0.0039063,0.0039063-0.0068359,0.0068359-0.0087891,0.0083008c-0.1054688,0.1147461-0.2197266,0.2294922-0.3603516,0.3613281   c-0.0224609,0.0209961-0.0517578,0.0527344-0.0722656,0.0756836c-0.0556641,0.0625-0.1113281,0.1259766-0.1777344,0.1938477   l-0.1279297,0.1191406c-0.0292969,0.0268555-0.0595703,0.0546875-0.0908203,0.0834961   c-0.0839844,0.0576172-0.1591797,0.1303711-0.2236328,0.21875c-0.0146484,0.0146484-0.0283203,0.0292969-0.0419922,0.0449219   l-0.0007935,0.0006714c-0.0006104,0.0005493-0.0015259,0.0007324-0.0021362,0.0012817   c-0.0272827,0.0244141-0.0617065,0.0531006-0.0898438,0.078125l-0.4228516,0.3652344   c-0.0087891,0.0078125-0.0175781,0.0161133-0.0263672,0.0239258c-0.0337524,0.0255737-0.0665283,0.0534668-0.0973511,0.0828857   c-0.0023804,0.0018921-0.0047607,0.0036011-0.0071411,0.0054932l-0.0083618,0.0072021   c-0.0015259,0.0011597-0.0027466,0.0023804-0.0043335,0.00354c-0.0380859,0.0322266-0.0810547,0.0703125-0.1240234,0.1015625   c-0.0185547,0.0126953-0.0361328,0.0263672-0.0527344,0.0400391c-0.0234375,0.0175781-0.046875,0.0361328-0.0703125,0.0546875   c-0.0146484,0.0102539-0.0283203,0.0205078-0.0429688,0.0317383c-0.0214844,0.0166016-0.0449219,0.0341797-0.0566406,0.0429688   c-0.0514526,0.0409546-0.0941143,0.0788574-0.1376934,0.118103c-0.0418091,0.0333862-0.0831909,0.0669556-0.1259766,0.100647   c-0.0478516,0.0341797-0.0986328,0.0732422-0.1660156,0.1279297c-0.0195313,0.0146484-0.0380859,0.0292969-0.0585938,0.0439453   c-0.0007935,0.0005493-0.0010986,0.0014648-0.0018921,0.0020752c-0.0148926,0.0109863-0.0308228,0.0203247-0.0449829,0.0321045   c-0.1152344,0.0961914-0.2402344,0.1806641-0.3681641,0.2685547l-0.1523438,0.1054688   c-0.1953125,0.1396484-0.4003906,0.2792969-0.5771484,0.3920898c-0.1816406,0.1074219-0.3632813,0.2143555-0.5234375,0.3188477   c-0.1314087,0.0800171-0.2625732,0.1573486-0.3933716,0.2278442c-0.0059204,0.0031128-0.0118408,0.0057983-0.0177612,0.0089722   c-0.0352173,0.0132446-0.0664063,0.0358276-0.1000366,0.0531006c-0.0368042,0.0163574-0.0751953,0.0324097-0.1060181,0.0494385   c-0.1337891,0.074707-0.2744141,0.1547852-0.4785156,0.2490234l-0.2158203,0.1108398   c-0.0888672,0.0449219-0.1787109,0.090332-0.2695313,0.1386719c-0.046875,0.0126953-0.09375,0.0292969-0.1396484,0.0493164   l-0.1650391,0.0708008c-0.098877,0.0422363-0.192749,0.0826416-0.276001,0.1209106   c-0.0010986,0.0004272-0.0021973,0.0002441-0.0032959,0.0006714c-0.0019531,0.0009766-0.0039063,0.0019531-0.0058594,0.0024414   l-0.0410156,0.0170898c-0.6738281,0.2799683-1.4197388,0.5213623-2.2189331,0.7183228   c-0.6201782,0.1420898-1.2528076,0.2507935-1.8796997,0.3217163c-0.0176392,0.0020142-0.0317383,0.0123901-0.0490112,0.0153198   c-0.4825439,0.0493164-0.9851074,0.0774536-1.4968872,0.0774536c-0.5527344,0-1,0.4477539-1,1s0.4472656,1,1,1   c0.2469482,0,0.480896-0.0274658,0.723999-0.0377808c0.0054932,0.0786133,0.0100708,0.147522,0.0162354,0.2335815   c0.0001221,0.0014648,0.0009766,0.0026855,0.0010986,0.0041504c0.0018921,0.0217896,0.0038452,0.0807495,0.0067139,0.1008301   c0,0.090332,0.0009766,0.1699219,0.0097656,0.2646484c0.0009766,0.0825195,0.0048828,0.1870117,0.0263672,0.3085938   c0.0097656,0.1479492,0.0224609,0.2983398,0.0361328,0.4511719c0.0146484,0.1728516,0.0292969,0.3496094,0.0410156,0.5517578   c0.0078125,0.1049805,0.0166016,0.2094727,0.0195313,0.3891602l0.0371094,0.4047852   c0,0.043457,0.0029297,0.0874023,0.0087891,0.1303711c0.0185547,0.1396484,0.0273438,0.2788086,0.0371094,0.4213867   l0.0224609,0.2841797c0.0175781,0.125,0.0253906,0.2416992,0.0429688,0.4692383   c0.0166016,0.1035156,0.0234375,0.206543,0.0390625,0.3798828l0.0126953,0.1352539   c0.0068359,0.090332,0.0146484,0.1791992,0.0361328,0.3168945c0.0195313,0.0986328,0.0244141,0.2094727,0.03125,0.3149414   c0.0019531,0.0253906,0.0068359,0.0844727,0.0097656,0.109375c0.0371094,0.2578125,0.0644531,0.5058594,0.0830078,0.7543945   c0.0039063,0.0546875,0.0087891,0.1118164,0.0224609,0.1650391c0,0.0073242,0.0029297,0.0371094,0.0058594,0.065918   c0.0039063,0.0756836,0.0136719,0.152832,0.0234375,0.2001953c0.0214844,0.2250977,0.0449219,0.4160156,0.0722656,0.5737305   c0.1035156,0.8447266,0.2255859,1.5644531,0.3564453,2.0888672c0.1289063,1.0888672,0.5966797,2.1513672,1.3242188,3.0092773   c0.1494141,0.2451172,0.3115234,0.4863281,0.5126953,0.7675781l0.0791016,0.1049805   c0.3369141,0.4838867,0.7148438,0.96875,1.1044922,1.4199219c0.171875,0.2114258,0.3613281,0.4233398,0.5439453,0.6259766   c0,0.0009766,0.0888672,0.0922852,0.0898438,0.0927734c0.1962891,0.2177734,0.4033203,0.4257813,0.6083984,0.6298828   C28.2020855,48.644043,28.3847027,48.828125,28.5741558,49H14.8593121z M33.0731773,26.1357422   c0.0009766,0,0,0.0004883,0,0.0004883l-0.0029297,0.0024414C33.0722008,26.1367188,33.0731773,26.1357422,33.0731773,26.1357422z    M29.4432964,47.0493164c-0.1835938-0.1835938-0.3671875-0.3666992-0.5410156-0.559082   c-0.0117188-0.0136719-0.0732422-0.0761719-0.0859375-0.0888672c-0.1611328-0.1791992-0.3291016-0.3657227-0.5-0.574707   c-0.3632813-0.4213867-0.6982422-0.8510742-0.9960938-1.277832c-0.0039063-0.0058594-0.0664063-0.0893555-0.0703125-0.0952148   l-0.0537109-0.0712891c-0.1552734-0.21875-0.3007813-0.4375-0.4375-0.6655273   c-0.03125-0.0517578-0.0664063-0.1005859-0.1064453-0.1455078c-0.5087891-0.581543-0.8310547-1.3071289-0.9072266-2.0444336   c-0.0058594-0.050293-0.0146484-0.0996094-0.0273438-0.1484375c-0.1152344-0.4448242-0.2275391-1.1015625-0.3310547-1.9438477   c-0.0263672-0.1577148-0.0439453-0.3066406-0.0771484-0.5546875c0-0.0268555-0.0087891-0.1342773-0.0107422-0.1611328   c-0.0058594-0.0717773-0.0136719-0.1435547-0.0263672-0.215332c-0.0214844-0.2709961-0.0517578-0.5405273-0.0869141-0.7841797   c-0.0126953-0.1933594-0.0292969-0.3959961-0.0566406-0.5283203l-0.0117188-0.121582   c-0.0068359-0.0888672-0.0146484-0.1796875-0.0205078-0.2045898c-0.0117188-0.15625-0.0244141-0.3129883-0.0390625-0.3759766   c-0.0117188-0.1860352-0.0234375-0.3496094-0.0410156-0.4697266l-0.015625-0.206543   c-0.0107422-0.1616211-0.0224609-0.3203125-0.0419922-0.4785156c0-0.034668-0.0009766-0.0712891-0.0009766-0.0839844   c-0.0068359-0.0883789-0.015625-0.1733398-0.0253906-0.2573242l-0.0126953-0.0727539   c0-0.1542969-0.0107422-0.3085938-0.0214844-0.4453125c-0.0107422-0.2021484-0.0273438-0.3984375-0.0439453-0.590332   c-0.0136719-0.1601563-0.0273438-0.3168945-0.0361328-0.4716797c-0.0029297-0.0649414-0.0019531-0.109375-0.0185547-0.1723633   c0-0.0405273-0.0048828-0.1704102-0.0097656-0.2104492c0-0.1064453-0.0019531-0.1943359-0.0126953-0.2563477l-0.0087891-0.1625977   c-0.0018311-0.0453491-0.0036011-0.0870972-0.0046387-0.1143799c0.1229248-0.020874,0.2427368-0.050415,0.3652954-0.0737915   l0.1989136-0.0374146c0.0351563-0.003418,0.0693359-0.0087891,0.1035156-0.015625l0.0908203-0.0209961   c0.0410156-0.0053711,0.0820313-0.0131836,0.1240234-0.0229492c0.0507813-0.0083008,0.0976563-0.019043,0.1416016-0.0322266   c0.0605469-0.0126953,0.1240234-0.0258789,0.1328125-0.0283203c0.0403442-0.0090942,0.0773926-0.0213013,0.1171265-0.0309448   c0.2108154-0.0492554,0.428772-0.1064453,0.656189-0.171814c0.0871582-0.0206909,0.1766357-0.0458984,0.3018799-0.0843506   c0.0126953-0.0039063,0.0253906-0.0078125,0.0380859-0.0117188c0.0078125-0.0024414,0.0166016-0.0053711,0.0253906-0.0083008   c0.0166016-0.0043945,0.0332031-0.0092773,0.0498047-0.0146484c0.0090942-0.0025024,0.0217285-0.0070801,0.0315552-0.0098877   c0.008606-0.0027466,0.0186768-0.0042725,0.0270386-0.0072021c0.0224609-0.0068359,0.0458984-0.0146484,0.0703125-0.0234375   c0.0556641-0.0136719,0.109375-0.0322266,0.1611328-0.0546875c0.0527344-0.0161133,0.0898438-0.0317383,0.1074219-0.0395508   c0.005249-0.00177,0.0117188-0.0053101,0.0170898-0.0072021c0.1386719-0.0469971,0.2768555-0.09375,0.4272461-0.147583   l0.4921875-0.206543c0.0224609-0.0087891,0.0439453-0.0180664,0.0654297-0.0268555l0.0039063-0.0019531   c0.0003052-0.0001221,0.0004272-0.0003662,0.0007324-0.0004883c0.0103149-0.0045166,0.0202026-0.0076294,0.0305176-0.012207   l0.3447266-0.1499023c0.0234375-0.0068359,0.0458984-0.0141602,0.0683594-0.0219727   c0.0742188-0.0205078,0.1474609-0.050293,0.2167969-0.0883789c0.1074219-0.0595703,0.2128906-0.1123047,0.3164063-0.1650391   l0.5029297-0.2446289c0.1025391-0.050293,0.1962891-0.1010742,0.2929688-0.1621094   c0.0053101-0.0022583,0.0100708-0.0054932,0.0153198-0.0078735c0.0091553-0.0042725,0.0186157-0.0076294,0.0276489-0.012146   c0.0114136-0.0057373,0.0241699-0.0145874,0.0355835-0.0204468c0.0065918-0.0037231,0.0134888-0.0064087,0.0200806-0.0103149   c0.0664063-0.0385742,0.1289063-0.0678711,0.1933594-0.0991211l0.1523438-0.0776367   c0.0914917-0.0529175,0.1726074-0.1080322,0.2520142-0.1681519c0.1520996-0.0974121,0.3040771-0.1876831,0.4833374-0.2937622   c0.2363281-0.1499023,0.4707031-0.3100586,0.6874981-0.4648438l0.1318359-0.0913086   c0.151123-0.1037598,0.2963257-0.2080078,0.4355469-0.3179321c0.0425415-0.0286255,0.0896606-0.0637817,0.1498413-0.1102905   c0.0095215-0.0066528,0.0196533-0.0126343,0.0288696-0.0195313c0.0742188-0.0439453,0.1416016-0.0966797,0.2011719-0.1572266   c0.0166626-0.0134277,0.0325928-0.0282593,0.0500488-0.0430908c0.0209961-0.0169067,0.043396-0.0336914,0.064209-0.0506592   l0.0264893-0.0214844c0.0148926-0.0120239,0.0316772-0.0236206,0.0457764-0.0356445   c0.0224609-0.0166016,0.0439453-0.0336914,0.0644531-0.0522461c0.0011597-0.0009766,0.0023193-0.0021973,0.003479-0.0031738   l0.0473022-0.0368652c0.0298462-0.0231934,0.057373-0.0463867,0.0869751-0.0696411   c0.0094604-0.0073853,0.0202637-0.0134888,0.0292358-0.0211792l0.0698853-0.0582275   c0.0241089-0.0193481,0.0492554-0.0388794,0.0725708-0.0581665c0.026001-0.0181274,0.052063-0.0362549,0.0762939-0.0564575   c0.0527344-0.0400391,0.1015625-0.0849609,0.1455078-0.1337891c0.0800781-0.0649414,0.1630859-0.1376953,0.2597656-0.2231445   l0.2033691-0.1804199c0.0167236-0.0151978,0.0369263-0.0314941,0.0534668-0.0466309   c0.0007935-0.0007324,0.0010376-0.001709,0.0018311-0.0024414l0.0274658-0.0244141   c0.0273438-0.0239258,0.0595703-0.0571289,0.0927734-0.0932617c0.0185547-0.0180664,0.0351563-0.0351563,0.0517578-0.0522461   c0.0117188-0.0107422,0.0224609-0.0219727,0.0341797-0.0332031l0.1591797-0.1494141   c0.0644531-0.059082,0.1259766-0.1162109,0.1923828-0.1821289c0.1015625-0.1025391,0.1826172-0.1933594,0.2070313-0.2270508   c0.1240234-0.1166992,0.2314453-0.2226563,0.3369141-0.3305664c0.0292969,0.0317383,0.0732422,0.0786133,0.1337891,0.1289063   l0.4042969,0.4287109c0.0302734,0.0302734,0.0615234,0.0585938,0.0957031,0.0844727   c0.0576172,0.0454102,0.1074219,0.0991211,0.2070313,0.2011719l0.1191406,0.1259766   c0.03125,0.03125,0.0644531,0.0605469,0.1005859,0.0869141c0.0118408,0.0111694,0.0240479,0.0215454,0.0361938,0.0320435   c0.0020752,0.0018921,0.0027466,0.0046387,0.0048218,0.0065308c0.0078125,0.0071411,0.0174561,0.0148926,0.0253296,0.0220337   l0.0410767,0.0414429c0.0332031,0.0327148,0.0673828,0.0629883,0.1044922,0.0908203   c0.0029297,0.0026855,0.0061646,0.0048218,0.0090942,0.0074463c0.0072632,0.0061646,0.0127563,0.0122681,0.0202026,0.0184326   c0.0048828,0.003418,0.0097656,0.0073242,0.0146484,0.0112305c0,0.0004883,0.0009766,0.0009766,0.0019531,0.0019531   c0.0107422,0.0102539,0.0224609,0.0214844,0.0322266,0.0302734c0.0175781,0.0195313,0.0361328,0.0390625,0.0556641,0.0571289   c0.0234375,0.0224609,0.0507813,0.0463867,0.0830078,0.0717773c0.0166016,0.015625,0.0332031,0.027832,0.0615234,0.0473633   c0.0058594,0.0058594,0.0244141,0.0200195,0.0429688,0.0351563c0.015625,0.0141602,0.0283203,0.0239258,0.03125,0.0253906   c0.0009766,0.0009766,0.0029297,0.0019531,0.0039063,0.0029297c0.0332031,0.034668,0.0693359,0.0673828,0.1083984,0.0966797   c0.0354004,0.0316772,0.0727539,0.0606689,0.1117554,0.0870361c0.0036011,0.0029907,0.0075073,0.0060425,0.0111694,0.0090332   c0.0032959,0.0029907,0.006958,0.0064087,0.0098877,0.0084229c0.022583,0.022583,0.0482178,0.0407715,0.0725098,0.0609741   c-0.0244751-0.0186157-0.0489502-0.0372925-0.0715332-0.0595093c0.0419922,0.0415039,0.0869141,0.0786133,0.1337891,0.1118164   c0.0097656,0.0073242,0.0185547,0.0141602,0.0273438,0.0209961c0.0039063,0.0029297,0.0078125,0.0063477,0.0117188,0.0092773   c0.0273438,0.0258789,0.0556641,0.050293,0.0849609,0.0732422c0.2539063,0.309082,0.2158203,0.7241211,0.4912109,0.3911133   c0.0018921-0.0028076,0.0037231-0.0056152,0.0056152-0.0079346c0.017395,0.0147705,0.031189,0.0258179,0.052002,0.0435791   c0.0400391,0.034668,0.0830078,0.0654297,0.1289063,0.0927734l0.2382813,0.1728516   c0.0820313,0.0556641,0.1689453,0.112793,0.2910156,0.2080078c0.2294922,0.1635742,0.4697266,0.3271484,0.7216797,0.4804688   c0.0136719,0.0083008,0.1025391,0.0639648,0.1162109,0.0712891c0.0726318,0.0476685,0.1364136,0.086792,0.1707764,0.1047363   c0.0123901,0.0072021,0.0236206,0.0151978,0.0362549,0.0222168c0.1103516,0.0761719,0.2382813,0.15625,0.3964844,0.253418   c0.0683594,0.0395508,0.1367188,0.0732422,0.2802734,0.1425781l0.0537109,0.0292969   c0.0361328,0.0229492,0.0693359,0.0429688,0.0966797,0.0581055c0.1210938,0.0664063,0.2480469,0.1347656,0.3115234,0.1582031   c0.0058594,0.0029297,0.0888672,0.0429688,0.0947266,0.0458984c0.0341797,0.0161133,0.0712891,0.0317383,0.0986328,0.0483398   c0.0390625,0.0273438,0.1621094,0.0942383,0.2050781,0.1157227c0.0664063,0.0341797,0.1328125,0.0683594,0.2050781,0.1025391   c0.0800781,0.0454102,0.1513672,0.0795898,0.2373047,0.1132813c0.0146484,0.0058594,0.0292969,0.0107422,0.0439453,0.015625   c0.0195313,0.0097656,0.0400391,0.0180664,0.0605469,0.0263672c0.1201172,0.0463867,0.2402344,0.0981445,0.3632813,0.1508789   l0.1591797,0.0678711c0.0223999,0.0093994,0.0441284,0.017334,0.0671387,0.0250854   c0.0010986,0.0004272,0.0020752,0.0008545,0.0031738,0.0012817l0.5527344,0.2304688   c0.0718994,0.0255127,0.1304932,0.041626,0.2001953,0.0656738c0.0586548,0.027832,0.1207275,0.0553589,0.1640625,0.0632324   c0.0244141,0.0087891,0.0654297,0.0234375,0.1220703,0.0380859c0.0322266,0.0126953,0.0585938,0.0219727,0.0800781,0.0292969   c0.0185547,0.0068359,0.0976563,0.0297852,0.1171875,0.0351563l0.1517944,0.0427246   c0.0254517,0.0078735,0.0546265,0.0184937,0.079834,0.0261841c0.0060425,0.0024414,0.012085,0.0048218,0.0183716,0.0072632   c0.1220703,0.0458984,0.2587891,0.0800781,0.3378906,0.0961914c0.2275391,0.0649414,0.4560547,0.1298828,0.6728516,0.1787109   c0.005127,0.0012817,0.0097046,0.0018311,0.0148315,0.0031128c0.0022583,0.0004883,0.0043945,0.0012817,0.0066528,0.00177   v-0.0003662c0.1127319,0.0276489,0.2263184,0.0540771,0.3261719,0.0687256   c0.0371094,0.0083008,0.0732422,0.0166016,0.1083984,0.0234375c0.0039063,0.0004883,0.0068359,0.0014648,0.0097656,0.0024414   c0.0566406,0.0151367,0.1162109,0.0263672,0.1728516,0.0332031c0.0042114,0.0015259,0.0089111,0.0016479,0.0131836,0.0031128   l-0.0004883,0.00177c0.0654297,0.0219727,0.1318359,0.0371094,0.2001953,0.0454102l0.1740112,0.0224609   c0.0505981,0.0089722,0.1052246,0.0230713,0.1549072,0.0313721c-0.0056152,0.0639038-0.008606,0.1271362-0.008606,0.164917   c-0.0058594,0.059082-0.0097656,0.121582-0.0068359,0.2075195c-0.0055542,0.0336914-0.0084839,0.0811768-0.010437,0.1268921   c-0.000061,0.0012207-0.0002441,0.0022583-0.0003052,0.003479c-0.0292969,0.2739258-0.0498047,0.5766602-0.0712891,0.9160156   c-0.0087891,0.1962891-0.0166016,0.3916016-0.0449219,0.6240234c-0.0283203,0.2543945-0.046875,0.5185547-0.0654297,0.7856445   l-0.0302734,0.4448242c0,0.0805664-0.0087891,0.1611328-0.0107422,0.1943359   c-0.0205078,0.1557617-0.0332031,0.3208008-0.0371094,0.4301758c-0.0164795,0.1049805-0.0274658,0.2269287-0.0380859,0.3686523   c-0.0025635,0.0316772-0.0073853,0.0628052-0.0097656,0.0942383l-0.1611328,1.5673828   c-0.0078125,0.1005859-0.0146484,0.2016602-0.0400391,0.3798828c-0.0058594,0.0717773-0.0078125,0.1328125-0.0244141,0.1987305   c-0.0117188,0.0483398-0.0214844,0.1147461-0.0253906,0.1645508c-0.0058594,0.0625-0.0078125,0.1254883-0.0234375,0.1875   c-0.0097656,0.0390625-0.0175781,0.0786133-0.0224609,0.1181641l-0.0214844,0.1733398   c-0.0166016,0.1435547-0.0322266,0.2797852-0.0644531,0.4506836l-0.0283203,0.1967773   c-0.0146484,0.1049805-0.0273438,0.2104492-0.0517578,0.3193359c-0.0390625,0.1855469-0.0703125,0.362793-0.1005859,0.5454102   c-0.0087891,0.0439453-0.015625,0.0849609-0.0263672,0.1171875c-0.0302734,0.0805664-0.0498047,0.1645508-0.0595703,0.2504883   c-0.0761719,0.7373047-0.3984375,1.4628906-0.9072266,2.0444336c-0.0380859,0.0429688-0.0722656,0.0893555-0.1025391,0.1386719   c-0.1472168,0.2417603-0.3062134,0.4853516-0.475708,0.7293701c-1.1866455,1.7084351-2.8896484,3.4413452-4.6883545,4.7525635   c-0.000061,0.000061-0.0001831,0.0001831-0.0002441,0.0002441l-0.4675293,0.3337402   c-1.4941406,1.027832-2.5830078,1.394043-3.1035156,1.394043c-0.1716309,0-0.373291-0.0325317-0.5990601-0.0950317   c-0.2258301-0.062439-0.475769-0.1549683-0.7439575-0.2746582c-0.5362549-0.2393799-1.1453247-0.5878296-1.7800293-1.024353   c-0.0002441-0.0001831-0.0006104-0.0002441-0.0008545-0.0004272c-0.000061,0-0.000061-0.000061-0.0001221-0.000061   l-0.4648418-0.3320313c-0.4755859-0.3491211-0.9003906-0.6855469-1.3056641-1.0371094   c-0.1679688-0.1420898-0.328125-0.293457-0.4882813-0.453125c-0.0292969-0.0297852-0.0605469-0.0571289-0.09375-0.0825195   c-0.0107422-0.0102539-0.0214844-0.0200195-0.0322266-0.0292969   C29.8163433,47.4326172,29.6415386,47.2558594,29.4432964,47.0493164z M30.8534527,56.3779297l3.3954449,3.3959351   l-1.6066895,2.663147l-2.6969585-4.7055664L30.8534527,56.3779297z M34.5097008,86.4902344h-8.0097637H11.5897808   l1.2363281-14.237793c0.0986328-1.0639648,0.3574219-2.1235352,0.7480469-3.0947266l0.2666016-0.5727539   c1.0898438-2.2543945,2.9414063-4.0483398,5.2207031-5.0532227l9.4736328-4.2089844l3.21875,5.5864258   c0.0281982,0.0490112,0.065918,0.0894775,0.1011963,0.1322632c0.0197754,0.0239258,0.0348511,0.0523071,0.0566406,0.0741577   c0.0428467,0.0431519,0.0933208,0.0764771,0.1428814,0.1109009c0.020752,0.0144043,0.0380859,0.0335083,0.0598145,0.0462646   c0.0457153,0.0267944,0.0966187,0.0429077,0.1461182,0.0621948c0.0306396,0.0119629,0.0587769,0.02948,0.0905762,0.0383301   c0.0357056,0.0099487,0.0741577,0.0099487,0.111084,0.0159302c0.048645,0.0078735,0.0961304,0.0203857,0.1461792,0.0209351   c0.0006714,0,0.0012817,0,0.0019531,0c0.0029297,0,0.0068359,0,0.0097656,0c0.3505859,0,0.6748047-0.1831055,0.8564453-0.4833984   l1.0332031-1.7127075V86.4902344z M33.114193,55.8100586h4.7780762l-2.3840332,2.394043L33.114193,55.8100586z    M40.1483727,56.3795776l0.90625,1.3518677l-1.5029297,2.621582c-0.0037842,0.0066528-0.0048218,0.0142212-0.0084229,0.0209351   l-1.1767578,2.0574951l-1.5977173-2.6582031L40.1483727,56.3795776z M36.5097008,86.4902344V63.2250977l1.0234375,1.7006836   c0.1806641,0.3007813,0.5058594,0.484375,0.8564453,0.484375c0.0029297,0,0.0058594,0,0.0097656,0   c0.0006714,0,0.0012817,0,0.0019531,0c0.0342407-0.0004272,0.0663452-0.0106201,0.0999756-0.0144653   c0.0530396-0.0061035,0.1069336-0.0085449,0.1577148-0.0227661c0.0284424-0.0079956,0.0534668-0.0238647,0.0809326-0.0342407   c0.0529175-0.0200195,0.1067505-0.0377197,0.1553955-0.0662842c0.0452881-0.0264893,0.0838013-0.0628052,0.1245117-0.0961914   c0.0254517-0.0209351,0.0544434-0.0369263,0.0778198-0.0604248c0.0618896-0.0618896,0.116394-0.1320801,0.1610718-0.210022   l0.1184082-0.2072144l3.0983887-5.3777466l9.4726563,4.215332c0.6279297,0.2744141,1.2412109,0.6254883,1.8701172,1.0668945   c2.4960938,1.7871094,4.0839844,4.5737305,4.3554688,7.6445313l1.2353516,14.2426758H36.5097008z M60.0599327,71.3320313   c-0.0328369-0.2211304-0.0562134-0.444519-0.1004639-0.6624146c-0.0455322-0.2241821-0.1116333-0.4415283-0.1690674-0.6619873   c-0.0556641-0.2136841-0.1018677-0.4304199-0.168457-0.6401367c-0.0684204-0.2154541-0.1567993-0.4223633-0.2365112-0.6331787   c-0.078064-0.2064819-0.1467285-0.4168701-0.2354126-0.6185913c-0.09021-0.2052002-0.1998901-0.4002686-0.3008423-0.6000977   c-0.0994873-0.1968384-0.1895142-0.3984375-0.2991943-0.5896606c-0.1134644-0.197876-0.2460938-0.3839111-0.3702393-0.5753174   c-0.1176147-0.1813354-0.2258301-0.3685303-0.3527832-0.5437012c-0.140564-0.1939697-0.3001709-0.3739624-0.4519653-0.5599365   c-0.1300049-0.1592407-0.2504272-0.3255005-0.3884277-0.4785156c-0.1759033-0.1950073-0.3709717-0.3737183-0.5596313-0.5580444   c-0.1322632-0.1292114-0.2547607-0.2670288-0.3931274-0.390686c-0.3354492-0.2998047-0.6883545-0.5831909-1.0582886-0.8480835   c-0.7460938-0.5244141-1.4736328-0.9389648-2.2197266-1.2651367l-0.2158203-0.0961914v-5.4204102h27.8798866v15.7700195H60.1552086   C60.1345787,71.7479248,60.0910606,71.5415649,60.0599327,71.3320313z M60.3300133,73.9599609h21.0898476   c0.5527344,0,1-0.4477539,1-1V55.1899414c0-0.5522461-0.4472656-1-1-1H51.5399742c-0.5527344,0-1,0.4477539-1,1v5.5268555   l-6.6936035-2.975769l-0.6444702-0.2868652c-0.0022583-0.0093994-0.0092163-0.0174561-0.0117188-0.0267944   c-0.0280151-0.1027832-0.067627-0.2027588-0.1287231-0.2940674l-1.9306641-2.8798828   c-0.0108643-0.0161743-0.0259399-0.0280151-0.0376587-0.043396c-0.0211792-0.0280151-0.0441895-0.0530396-0.0681152-0.0784912   c-0.0390625-0.041626-0.0805054-0.0791016-0.1256104-0.1132202c-0.024292-0.0183716-0.0469971-0.0374146-0.072876-0.0535278   c-0.0101318-0.0063477-0.0194092-0.0124512-0.0297241-0.0183716c-0.0455933-0.0262451-0.0940552-0.0449829-0.1432495-0.0637207   c-0.0280151-0.0107422-0.0543213-0.0239868-0.083374-0.0321655c-0.0452271-0.0127563-0.09198-0.0178223-0.1389771-0.0241699   c-0.0123291-0.0016479-0.0223389-0.0101929-0.03479-0.0114136c-0.0100098-0.0010986-0.019104,0.0042725-0.0291138,0.003479   c-0.0228271-0.0015869-0.0445557-0.0083618-0.0675659-0.0083618h-8.7597637v-2.4433594   c0.0298462,0.0196533,0.0627441,0.0394287,0.0931396,0.0591431c0.0611572,0.0397339,0.1234741,0.0787964,0.1866455,0.1185913   c0.0928955,0.0584717,0.1865215,0.1160889,0.2832623,0.1740112c0.069458,0.0415649,0.1390381,0.0820923,0.2102051,0.1230469   c0.0963135,0.0554199,0.1934204,0.1091919,0.2924194,0.1627808c0.0738525,0.039978,0.1471558,0.0790405,0.222229,0.1176147   c0.1010132,0.052002,0.2027588,0.1010742,0.305542,0.1499023c0.0758667,0.0360718,0.1511841,0.0718384,0.2277832,0.105835   c0.1050415,0.0465698,0.2102051,0.088623,0.3161011,0.1306763c0.0756226,0.0300293,0.1507568,0.0609131,0.2265625,0.0882568   c0.1100464,0.0396729,0.2196045,0.0726929,0.3295288,0.1060791c0.0718384,0.0217896,0.1434937,0.0460815,0.2150879,0.0648804   c0.1206055,0.0316772,0.239563,0.053894,0.3588257,0.0761719c0.0595703,0.0111084,0.119751,0.0268555,0.178772,0.0354004   c0.1773071,0.0256348,0.352478,0.0408325,0.5236206,0.0408325c0.1695557,0,0.3433228-0.0151978,0.5194092-0.0409546   c0.0604248-0.0088501,0.1221924-0.0251465,0.1831665-0.0367432c0.1168823-0.0221558,0.2334595-0.0438232,0.3517456-0.0751953   c0.0732422-0.0194092,0.1466675-0.0446777,0.2202148-0.0672607c0.1072388-0.032959,0.2141724-0.0651245,0.3215332-0.104126   c0.0783691-0.0284424,0.1558228-0.060791,0.2340088-0.0921021c0.1028442-0.0411987,0.2052612-0.0820313,0.307312-0.1275635   c0.0789795-0.0352173,0.1564331-0.0725098,0.2346802-0.1099243c0.1000977-0.0478516,0.1992798-0.0957031,0.2977295-0.1465454   c0.0769043-0.0397339,0.1519775-0.0800781,0.2276001-0.1212769c0.097168-0.0528564,0.192749-0.1057129,0.2873535-0.1603394   c0.0731201-0.0422363,0.1444092-0.0841675,0.2156982-0.1270142c0.0933228-0.0561523,0.1841431-0.1118774,0.2739258-0.168457   c0.0675049-0.0425415,0.1333618-0.0843506,0.1986084-0.1268311c0.0335083-0.0217896,0.0697632-0.0437622,0.1026001-0.0654907   h44.9746132v25.4599609H60.5770836L60.3300133,73.9599609z M60.7509117,78.8100586h24.7089882h0.6201172v2.8398438H60.9970055   L60.7509117,78.8100586z M87.0800171,83.6499023h1.4199219V86.5H61.4179039l-0.2470703-2.8500977H87.0800171z    M85.4598999,49.3500977H58.8495445c-0.0078125-0.0097656-0.0166016-0.019043-0.0253906-0.0283203   c-0.0039063-0.0053711-0.4814453-0.5307617-1.1503906-1.6484375c-0.078125-0.1235352-0.1533203-0.2543945-0.2324219-0.3901367   l-0.1582031-0.2714844c-0.3212891-0.5742188-0.6582031-1.2509766-1.0341797-2.0859375l-0.9101563,0.4140625l0.8623047-0.5302734   c-0.2148438-0.5063477-0.4482422-1.0610352-0.6796875-1.6904297c-0.0585938-0.159668-0.1171875-0.3188477-0.1669922-0.4785156   l-0.0019531,0.0004883c-0.0097656-0.03125-0.0205078-0.0625-0.0332031-0.0927734   c-0.0273438-0.0947266-0.0576172-0.1850586-0.0986328-0.3046875c-0.1201172-0.3041992-0.2207031-0.6362305-0.3242188-0.9863281   c-0.0644531-0.2104492-0.1289063-0.4204102-0.2001953-0.7119141c-0.0527344-0.1699219-0.0957031-0.3305664-0.1396484-0.4916992   l-0.0615234-0.2260742c-0.0512695-0.1891479-0.097229-0.4019775-0.1479492-0.5976563h22.232914H88.499939v10.1201172H85.4598999z"/></g><text x="0" y="115" fill="#000000" font-size="5px" font-weight="bold" font-family="'Helvetica Neue', Helvetica, Arial-Unicode, Arial, Sans-serif">Created by Edwin PM</text><text x="0" y="120" fill="#000000" font-size="5px" font-weight="bold" font-family="'Helvetica Neue', Helvetica, Arial-Unicode, Arial, Sans-serif">from the Noun Project</text></svg>