<svg xmlns="http://www.w3.org/2000/svg" xmlns:xlink="http://www.w3.org/1999/xlink" version="1.1" x="0px" y="0px" viewBox="0 0 95 118.75" enable-background="new 0 0 95 95" xml:space="preserve"><g><g><path d="M41.042,42.184c-6.506,0-11.781,5.273-11.781,11.781s5.275,11.781,11.781,11.781s11.783-5.273,11.783-11.781    S47.548,42.184,41.042,42.184z M44.261,51.443h-2.01V48.98h-2.42v2.359l3.967,3.742c0.309,0.287,0.463,0.65,0.463,1.09v3.107    c0,0.502-0.154,0.848-0.463,1.037c-0.223,0.137-0.578,0.205-1.064,0.205c-0.08,0-0.205,0-0.379-0.008c-0.172,0-0.299,0-0.385,0    v1.193h-1.881v-1.193c-0.084,0-0.213,0-0.385,0c-0.166,0.008-0.293,0.008-0.379,0.008c-0.479,0-0.832-0.068-1.055-0.205    c-0.299-0.182-0.445-0.529-0.445-1.037v-3.074h2.006v2.688h2.42v-2.619l-3.988-3.775c-0.293-0.279-0.438-0.643-0.438-1.09v-2.85    c0-0.502,0.146-0.848,0.445-1.037c0.223-0.139,0.576-0.205,1.055-0.205c0.086,0,0.213,0.002,0.381,0.008    c0.17,0.006,0.299,0.008,0.383,0.008v-1.201h1.881v1.201c0.086,0,0.215-0.002,0.389-0.008c0.176-0.006,0.305-0.008,0.393-0.008    c0.48,0,0.83,0.066,1.053,0.205c0.307,0.182,0.457,0.523,0.457,1.021V51.443z"/></g><g><g><path d="M74.159,74.123H7.923c-1.286,0-2.332-1.046-2.332-2.332V36.387c0-1.286,1.046-2.332,2.332-2.332h66.236     c1.287,0,2.334,1.046,2.334,2.332v35.404C76.493,73.077,75.446,74.123,74.159,74.123z M7.923,35.555     c-0.459,0-0.832,0.373-0.832,0.832v35.404c0,0.459,0.373,0.832,0.832,0.832h66.236c0.46,0,0.834-0.373,0.834-0.832V36.387     c0-0.459-0.374-0.832-0.834-0.832H7.923z M16.226,68.904v-0.75c0-3.002-2.442-5.443-5.443-5.443h-0.75V45.463h0.75     c3.001,0,5.443-2.441,5.443-5.441v-0.75H65.86v0.75c0,3,2.44,5.441,5.441,5.441h0.75v17.248h-0.75     c-3.001,0-5.441,2.441-5.441,5.441v0.75L16.226,68.904z M17.686,67.402L64.4,67.404c0.349-3.23,2.922-5.805,6.151-6.153V46.923     c-3.229-0.349-5.803-2.922-6.151-6.151H17.686c-0.35,3.229-2.923,5.803-6.153,6.151v14.328     C14.764,61.6,17.337,64.173,17.686,67.402z"/></g></g><g><g><g><g><polygon points="10.507,30.379 10.507,32.357 77.931,32.357 77.931,68.947 79.909,68.947 79.909,30.379      "/></g></g></g><g><g><g><polygon points="13.673,27.211 13.673,29.189 81.097,29.189 81.097,65.781 83.077,65.781 83.077,27.211      "/></g></g></g><g><g><g><polygon points="16.841,24.045 16.841,26.023 84.265,26.023 84.265,62.613 86.243,62.613 86.243,24.045      "/></g></g></g><g><g><g><polygon points="20.007,20.877 20.007,22.857 87.431,22.857 87.431,59.447 89.409,59.447 89.409,20.877      "/></g></g></g></g></g><text x="0" y="110" fill="#000000" font-size="5px" font-weight="bold" font-family="'Helvetica Neue', Helvetica, Arial-Unicode, Arial, Sans-serif">Created by Guilherme Furtado</text><text x="0" y="115" fill="#000000" font-size="5px" font-weight="bold" font-family="'Helvetica Neue', Helvetica, Arial-Unicode, Arial, Sans-serif">from the Noun Project</text></svg>