<svg xmlns="http://www.w3.org/2000/svg" xmlns:xlink="http://www.w3.org/1999/xlink" version="1.1" x="0px" y="0px" viewBox="0 0 100 125" enable-background="new 0 0 100 100" xml:space="preserve"><g><path d="M44.125,94.613c1.965,0.261,3.961,0.392,5.93,0.392c22.467,0,41.623-16.82,44.561-39.131   c3.238-24.603-14.143-47.25-38.742-50.49c-1.965-0.258-3.959-0.39-5.928-0.39c-22.467,0-41.623,16.822-44.561,39.132   C2.146,68.727,19.525,91.376,44.125,94.613z M7.877,44.453C10.65,23.391,28.734,7.509,49.943,7.509   c1.855,0,3.744,0.123,5.602,0.367c23.227,3.061,39.635,24.442,36.576,47.67C89.35,76.609,71.264,92.49,50.055,92.49   c-1.859,0-3.744-0.125-5.602-0.368C21.229,89.063,4.818,67.679,7.877,44.453z"/><path d="M50,15.559c0.693,0,1.256-0.564,1.256-1.259v-2.683c0-0.694-0.563-1.258-1.256-1.258c-0.695,0-1.258,0.563-1.258,1.258   V14.3C48.742,14.994,49.305,15.559,50,15.559z"/><path d="M50,84.439c-0.695,0-1.258,0.563-1.258,1.258v2.683c0,0.692,0.563,1.256,1.258,1.256c0.693,0,1.256-0.563,1.256-1.256   v-2.683C51.256,85.003,50.693,84.439,50,84.439z"/><path d="M14.301,48.742h-2.682c-0.693,0-1.258,0.563-1.258,1.257c0,0.694,0.563,1.258,1.258,1.258h2.682   c0.695,0,1.258-0.563,1.258-1.258S14.996,48.742,14.301,48.742z"/><path d="M31.063,19.712c0.232,0.403,0.654,0.629,1.09,0.629c0.213,0,0.428-0.056,0.627-0.168c0.602-0.349,0.807-1.113,0.459-1.717   l-1.34-2.322c-0.348-0.603-1.115-0.81-1.719-0.461c-0.6,0.35-0.807,1.114-0.459,1.719L31.063,19.712z"/><path d="M68.938,80.285c-0.348-0.6-1.117-0.809-1.719-0.459c-0.6,0.347-0.807,1.115-0.459,1.718l1.342,2.321   c0.232,0.402,0.654,0.627,1.09,0.627c0.213,0,0.43-0.053,0.627-0.168c0.602-0.346,0.807-1.114,0.459-1.717L68.938,80.285z"/><path d="M18.455,66.759L16.133,68.1c-0.602,0.348-0.807,1.114-0.461,1.717c0.232,0.403,0.656,0.629,1.09,0.629   c0.215,0,0.43-0.055,0.627-0.168l2.322-1.342c0.604-0.347,0.809-1.115,0.461-1.718C19.826,66.619,19.057,66.412,18.455,66.759z"/><path d="M80.916,33.406c0.213,0,0.43-0.055,0.627-0.168l2.322-1.342c0.602-0.347,0.807-1.115,0.461-1.718   c-0.348-0.604-1.117-0.811-1.717-0.459l-2.324,1.341c-0.6,0.348-0.807,1.116-0.459,1.717   C80.059,33.182,80.482,33.406,80.916,33.406z"/><path d="M16.133,31.896l2.322,1.342c0.197,0.113,0.414,0.168,0.627,0.168c0.436,0,0.857-0.225,1.09-0.629   c0.348-0.601,0.143-1.369-0.461-1.717l-2.322-1.341c-0.6-0.35-1.369-0.145-1.717,0.459C15.326,30.781,15.531,31.55,16.133,31.896z"/><path d="M83.865,68.1l-2.322-1.341c-0.602-0.35-1.369-0.143-1.717,0.459c-0.348,0.603-0.141,1.371,0.461,1.718l2.322,1.342   c0.197,0.113,0.412,0.168,0.627,0.168c0.434,0,0.855-0.226,1.09-0.629C84.672,69.214,84.467,68.447,83.865,68.1z"/><path d="M32.779,79.824c-0.604-0.348-1.371-0.141-1.717,0.461l-1.342,2.322c-0.348,0.603-0.141,1.371,0.461,1.717   c0.197,0.115,0.414,0.168,0.627,0.168c0.434,0,0.855-0.225,1.09-0.627l1.34-2.321C33.586,80.941,33.379,80.171,32.779,79.824z"/><path d="M67.219,20.171c0.199,0.113,0.414,0.168,0.629,0.168c0.434,0,0.855-0.225,1.09-0.629l1.34-2.322   c0.348-0.6,0.143-1.366-0.459-1.717c-0.604-0.348-1.371-0.141-1.717,0.461l-1.342,2.322C66.412,19.054,66.619,19.824,67.219,20.171   z"/><path d="M29.488,35.845l19.746,15.148c0.008,0.008,0.016,0.012,0.023,0.018c0.033,0.021,0.066,0.046,0.104,0.063   c0.031,0.021,0.063,0.037,0.096,0.055c0.035,0.017,0.066,0.029,0.105,0.043c0.035,0.017,0.076,0.025,0.117,0.039   c0.031,0.008,0.064,0.017,0.1,0.021c0.063,0.012,0.131,0.021,0.191,0.021c0.016,0,0.021,0.002,0.027,0.002h35.699h2.68h0.002   c0.695,0,1.258-0.563,1.258-1.259c0-0.692-0.563-1.256-1.258-1.256h-0.002h-2.68H50.426L31.023,33.845   c-0.555-0.422-1.344-0.317-1.768,0.23C28.834,34.63,28.939,35.421,29.488,35.845z"/></g><text x="0" y="115" fill="#000000" font-size="5px" font-weight="bold" font-family="'Helvetica Neue', Helvetica, Arial-Unicode, Arial, Sans-serif">Created by Marta Ambrosetti</text><text x="0" y="120" fill="#000000" font-size="5px" font-weight="bold" font-family="'Helvetica Neue', Helvetica, Arial-Unicode, Arial, Sans-serif">from the Noun Project</text></svg>