<?xml version="1.0" encoding="utf-8"?>
<!-- Generator: Adobe Illustrator 22.1.0, SVG Export Plug-In . SVG Version: 6.00 Build 0)  -->
<svg version="1.1" id="Layer_1" xmlns="http://www.w3.org/2000/svg" xmlns:xlink="http://www.w3.org/1999/xlink" x="0px" y="0px"
	 viewBox="0 0 512 512" style="enable-background:new 0 0 512 512;" xml:space="preserve">
<path d="M230.2,210.8c0.4,0.8,0.8,1.6,1.3,2.3c1.5,2.3,5.1,7.7,9,13.2l-65.6,65.6c-7.8,7.8-7.8,20.5,0,28.3c3.9,3.9,9,5.9,14.1,5.9
	s10.2-2,14.1-5.9l36.2-36.2c0.9,1.6,1.7,3.2,2.5,4.7c3.6,7.6,5.4,15.2,5.4,22.7c0,20.5-11.7,43.1-33.8,65.4l-1.8,1.6
	c-0.7,0.6-1.4,1.3-2,2l-1.6,1.8C185.6,404.3,163,416,142.5,416c-11.3,0-21.7-3.5-31.8-10.6c-0.4-0.3-0.7-0.6-1.1-0.9l-1.9-1.5
	c-2.9-2.2-5.8-4.7-8.5-7.5C85.6,382,79,367.9,79,352.5c0-20.5,11.7-43.1,33.8-65.4l1.8-1.6c0.7-0.6,1.4-1.3,2-2l1.6-1.8
	c17.5-17.4,34.5-28.1,50.5-32c10.7-2.6,17.3-13.5,14.7-24.2c-2.6-10.7-13.4-17.3-24.2-14.7c-23.3,5.7-46.8,20.2-69.7,43.1
	c-0.3,0.3-0.7,0.7-1,1.1l-1.1,1.3l-1.3,1.1c-0.4,0.3-0.7,0.6-1.1,1c-30.1,30.2-46,62.7-46,94.2c0,26.2,10.7,50.2,31.9,71.3
	c4,4,8.2,7.6,12.4,10.9l0.6,0.5c0.6,0.5,1.2,1,1.8,1.5c17.4,12.8,36.5,19.3,56.8,19.3c31.4,0,64-15.9,94.2-46c0.3-0.3,0.7-0.7,1-1.1
	l1.1-1.3l1.3-1.1c0.4-0.3,0.7-0.7,1.1-1c30.1-30.2,46-62.7,46-94.2c0-13.6-3.2-27-9.4-40.1c-0.1-0.1-0.1-0.2-0.2-0.3
	c-1.4-2.8-4.8-9.5-9.1-16.2l64.5-64.5c7.8-7.8,7.8-20.5,0-28.3c-7.8-7.8-20.5-7.8-28.3,0l-35.7,35.7c-1.2-1.7-2.4-3.5-3.5-5.1
	c-3.3-7.2-5-14.5-5-21.7c0-20.5,11.7-43.1,33.8-65.4l1.8-1.6c0.7-0.6,1.4-1.3,2-2l1.6-1.8C322.4,77.7,345,66,365.5,66
	c11.3,0,21.7,3.5,31.8,10.6c0.4,0.3,0.7,0.6,1.1,0.9l1.9,1.5c2.9,2.2,5.7,4.7,8.5,7.5c13.5,13.5,20.1,27.6,20.1,43
	c0,20.5-11.7,43.1-33.8,65.4l-1.8,1.6c-0.7,0.6-1.4,1.3-2,2l-1.6,1.8c-17.2,17-34.6,27.5-51.9,31.3c-10.8,2.3-17.7,13-15.3,23.8
	c2,9.4,10.3,15.8,19.5,15.8c1.4,0,2.8-0.1,4.2-0.5c25.1-5.4,49.4-19.7,72.2-42.5c0.3-0.3,0.7-0.7,1-1.1l1.1-1.3l1.3-1.1
	c0.4-0.3,0.7-0.6,1.1-1c30.1-30.2,46-62.7,46-94.2c0-26.2-10.7-50.2-31.9-71.3c-4-4-8.2-7.6-12.4-10.9l-0.6-0.5
	c-0.6-0.5-1.2-1-1.8-1.5C404.9,32.5,385.8,26,365.5,26c-31.4,0-64,15.9-94.2,46c-0.3,0.3-0.7,0.7-1,1.1l-1.1,1.3l-1.3,1.1
	c-0.4,0.3-0.7,0.6-1.1,1c-30.1,30.2-46,62.7-46,94.2C220.8,184.3,223.9,197.7,230.2,210.8z"/>
</svg>
